<svg width="516" height="216" viewBox="0 0 716 216" fill="none" xmlns="http://www.w3.org/2000/svg">
<path d="M104.33 20.7597C104.33 27.0897 99.6501 31.4897 93.6001 31.4897C91.1201 31.4897 87.5501 30.3897 83.1501 28.7397C79.3001 27.0897 75.7201 25.4397 70.2201 25.4397C54.8101 25.4397 49.8601 36.9997 49.8601 48.2697V57.6197H77.3701C84.5201 57.6197 89.4701 62.2997 89.4701 69.1797C89.4701 76.3297 84.5201 81.0097 77.3701 81.0097H49.8601V187.75C49.8601 195.73 43.2601 202.33 35.5501 202.33C27.5701 202.33 20.9701 195.73 20.9701 187.75V81.0097H11.8901C4.74006 81.0097 0.0600586 76.3297 0.0600586 69.1797C0.0600586 62.2997 4.74006 57.6197 11.8901 57.6197H20.9701V47.1697C20.9701 9.47971 48.7601 0.679688 66.6401 0.679688C79.0201 0.679688 89.4701 3.97969 96.9001 9.20969C101.58 12.2297 104.33 15.8097 104.33 20.7597Z" fill="#6666FF"/>
<path d="M120.84 16.0898C120.84 8.10975 127.72 1.50977 135.7 1.50977C143.68 1.50977 150.56 8.10975 150.56 16.0898C150.56 24.0698 143.68 30.6698 135.7 30.6698C127.72 30.6698 120.84 24.0598 120.84 16.0898ZM150.27 71.6598V187.48C150.27 195.74 143.67 202.34 135.69 202.34C127.71 202.34 121.11 195.74 121.11 187.48V71.6598C121.11 63.4098 127.71 56.7997 135.69 56.7997C143.67 56.7997 150.27 63.3998 150.27 71.6598Z" fill="#6666FF"/>
<path d="M308.461 189.4C308.461 196.28 302.681 202.06 295.531 202.06C291.951 202.06 288.651 200.41 286.451 198.21L231.981 139.06L212.721 157.49V187.48C212.721 195.46 206.121 202.06 198.141 202.06C190.161 202.06 183.561 195.46 183.561 187.48V18.8398C183.561 10.8598 190.161 4.25977 198.141 4.25977C206.121 4.25977 212.721 10.8598 212.721 18.8398V123.1L274.621 60.9198C277.101 58.7198 280.951 56.7898 284.521 56.7898C291.951 56.7898 297.731 62.8398 297.731 69.9998C297.731 73.5798 296.361 76.8798 294.151 79.3498L249.861 122L304.611 180.32C306.811 182.53 308.461 185.83 308.461 189.4Z" fill="#6666FF"/>
<path d="M331.84 16.0898C331.84 8.10975 338.72 1.50977 346.7 1.50977C354.68 1.50977 361.56 8.10975 361.56 16.0898C361.56 24.0698 354.68 30.6698 346.7 30.6698C338.72 30.6698 331.84 24.0598 331.84 16.0898ZM361.28 71.6598V187.48C361.28 195.74 354.68 202.34 346.7 202.34C338.72 202.34 332.12 195.74 332.12 187.48V71.6598C332.12 63.4098 338.72 56.7997 346.7 56.7997C354.68 56.7997 361.28 63.3998 361.28 71.6598Z" fill="#6666FF"/>
<path d="M484.251 69.7298C484.251 77.9798 477.921 83.4797 465.541 83.4797C441.331 83.4797 425.651 102.19 423.721 116.77V187.47C423.721 195.45 417.121 202.05 409.141 202.05C401.161 202.05 394.561 195.45 394.561 187.47V71.6598C394.561 63.4098 401.161 56.7998 409.141 56.7998C417.121 56.7998 423.721 63.3998 423.721 71.6598V89.8198C425.091 80.1898 442.431 56.2598 469.391 56.2598C479.031 56.2498 484.251 62.2998 484.251 69.7298Z" fill="#6666FF"/>
<path d="M701.36 202.06C693.38 202.06 686.78 195.46 686.78 187.48V18.8398C686.78 10.8598 693.38 4.25977 701.36 4.25977C709.34 4.25977 715.94 10.8598 715.94 18.8398V187.48C715.94 195.46 709.33 202.06 701.36 202.06Z" fill="#FFFF66"/>
<path d="M663.6 189.25L655.53 174.4C652.48 168.78 651.89 162.1 654.15 156.11C654.17 156.07 654.18 156.02 654.2 155.979C668.39 118.7 655.85 77.6995 623.71 56.2595C591.91 35.0495 546.6 38.3995 518.33 64.0695C507.89 73.5395 500.25 84.9795 495.6 98.0595C491.25 110.32 489.8 123.69 491.43 136.71C494.86 164.17 510.82 187.36 535.22 200.34C547.9 207.08 561.12 210.5 574.48 210.5C585.99 210.5 597.5 207.95 608.71 202.92C608.75 202.9 608.79 202.88 608.83 202.86C614.88 200.18 621.9 200.98 627.39 204.67L638.87 212.37C646.18 217.27 656.09 215.969 661.87 209.1C666.55 203.56 667.06 195.61 663.6 189.25ZM642.53 192.84C630.35 189.82 610.07 178.649 599.89 183.219C581.59 191.43 563.25 190.77 545.37 181.27C527.26 171.64 515.41 154.42 512.87 134.03C510.32 113.58 517.6 93.8995 532.85 80.0495C543.01 70.8295 556.66 65.1595 571.3 64.0695C572.99 63.9395 574.71 63.8795 576.41 63.8795C589.39 63.8795 601.61 67.4495 611.74 74.2095C635.44 90.0195 644.61 120.479 634.03 148.289C629.84 159.309 639.14 181.48 642.24 191.63" fill="#FFFF66"/>
</svg>
