<?xml version="1.0" encoding="utf-8"?>
<!-- Generator: Adobe Illustrator 27.0.0, SVG Export Plug-In . SVG Version: 6.00 Build 0)  -->
<svg version="1.1" id="Layer_1" xmlns="http://www.w3.org/2000/svg" xmlns:xlink="http://www.w3.org/1999/xlink" x="0px" y="0px"
	 viewBox="0 0 1080 1080" style="enable-background:new 0 0 1080 1080;" xml:space="preserve">
<style type="text/css">
	.st0{fill:#6666FF;}
	.st1{fill:#F7CE00;}
	.st2{fill:none;}
</style>
<g>
	<g>
		<path class="st0" d="M286.33,452.76c0,6.33-4.68,10.73-10.73,10.73c-2.48,0-6.05-1.1-10.45-2.75c-3.85-1.65-7.43-3.3-12.93-3.3
			c-15.41,0-20.36,11.56-20.36,22.83v9.35h27.51c7.15,0,12.1,4.68,12.1,11.56c0,7.15-4.95,11.83-12.1,11.83h-27.51v106.74
			c0,7.98-6.6,14.58-14.31,14.58c-7.98,0-14.58-6.6-14.58-14.58V513.01h-9.08c-7.15,0-11.83-4.68-11.83-11.83
			c0-6.88,4.68-11.56,11.83-11.56h9.08v-10.45c0-37.69,27.79-46.49,45.67-46.49c12.38,0,22.83,3.3,30.26,8.53
			C283.58,444.23,286.33,447.81,286.33,452.76z"/>
		<path class="st0" d="M302.84,448.09c0-7.98,6.88-14.58,14.86-14.58s14.86,6.6,14.86,14.58s-6.88,14.58-14.86,14.58
			S302.84,456.06,302.84,448.09z M332.27,503.66v115.82c0,8.26-6.6,14.86-14.58,14.86s-14.58-6.6-14.58-14.86V503.66
			c0-8.25,6.6-14.86,14.58-14.86S332.27,495.4,332.27,503.66z"/>
		<path class="st0" d="M490.46,621.4c0,6.88-5.78,12.66-12.93,12.66c-3.58,0-6.88-1.65-9.08-3.85l-54.47-59.15l-19.26,18.43v29.99
			c0,7.98-6.6,14.58-14.58,14.58c-7.98,0-14.58-6.6-14.58-14.58V450.84c0-7.98,6.6-14.58,14.58-14.58c7.98,0,14.58,6.6,14.58,14.58
			V555.1l61.9-62.18c2.48-2.2,6.33-4.13,9.9-4.13c7.43,0,13.21,6.05,13.21,13.21c0,3.58-1.37,6.88-3.58,9.35L431.86,554l54.75,58.32
			C488.81,614.53,490.46,617.83,490.46,621.4z"/>
		<path class="st0" d="M513.84,448.09c0-7.98,6.88-14.58,14.86-14.58s14.86,6.6,14.86,14.58s-6.88,14.58-14.86,14.58
			S513.84,456.06,513.84,448.09z M543.28,503.66v115.82c0,8.26-6.6,14.86-14.58,14.86s-14.58-6.6-14.58-14.86V503.66
			c0-8.25,6.6-14.86,14.58-14.86S543.28,495.4,543.28,503.66z"/>
		<path class="st0" d="M666.25,501.73c0,8.25-6.33,13.75-18.71,13.75c-24.21,0-39.89,18.71-41.82,33.29v70.7
			c0,7.98-6.6,14.58-14.58,14.58s-14.58-6.6-14.58-14.58V503.66c0-8.25,6.6-14.86,14.58-14.86s14.58,6.6,14.58,14.86v18.16
			c1.37-9.63,18.71-33.56,45.67-33.56C661.03,488.25,666.25,494.3,666.25,501.73z"/>
		<path class="st1" d="M883.36,634.06c-7.98,0-14.58-6.6-14.58-14.58V450.84c0-7.98,6.6-14.58,14.58-14.58
			c7.98,0,14.58,6.6,14.58,14.58v168.64C897.94,627.46,891.33,634.06,883.36,634.06z"/>
		<path class="st1" d="M845.6,621.25l-8.07-14.85c-3.05-5.62-3.64-12.3-1.38-18.29c0.02-0.04,0.03-0.09,0.05-0.13
			c14.19-37.28,1.65-78.28-30.49-99.72c-31.8-21.21-77.11-17.86-105.38,7.81c-10.44,9.47-18.08,20.91-22.73,33.99
			c-4.35,12.26-5.8,25.63-4.17,38.65c3.43,27.46,19.39,50.65,43.79,63.63c12.68,6.74,25.9,10.16,39.26,10.16
			c11.51,0,23.02-2.55,34.23-7.58c0.04-0.02,0.08-0.04,0.12-0.06c6.05-2.68,13.07-1.88,18.56,1.81l11.48,7.7
			c7.31,4.9,17.22,3.6,23-3.27C848.55,635.56,849.06,627.61,845.6,621.25z M824.53,624.84c-12.18-3.02-32.46-14.19-42.64-9.62
			c-18.3,8.21-36.64,7.55-54.52-1.95c-18.11-9.63-29.96-26.85-32.5-47.24c-2.55-20.45,4.73-40.13,19.98-53.98
			c10.16-9.22,23.81-14.89,38.45-15.98c1.69-0.13,3.41-0.19,5.11-0.19c12.98,0,25.2,3.57,35.33,10.33
			c23.7,15.81,32.87,46.27,22.29,74.08c-4.19,11.02,5.11,33.19,8.21,43.34"/>
	</g>
</g>
<rect class="st2" width="1080" height="1080"/>
</svg>
